<svg width="590" height="755" viewBox="0 0 590 755" fill="none" xmlns="http://www.w3.org/2000/svg">
<mask id="path-1-inside-1_108_505" fill="white">
<path d="M0 4.99998C0 2.23856 2.23858 0 5 0H585C587.761 0 590 2.23858 590 5V750C590 752.761 587.761 755 585 755H5.00001C2.23858 755 0 752.761 0 750V4.99998Z"/>
</mask>
<path d="M0 4.99998C0 2.23856 2.23858 0 5 0H585C587.761 0 590 2.23858 590 5V750C590 752.761 587.761 755 585 755H5.00001C2.23858 755 0 752.761 0 750V4.99998Z" fill="white"/>
<path d="M5 1H585V-1H5V1ZM589 5V750H591V5H589ZM585 754H5.00001V756H585V754ZM1 750V4.99998H-1V750H1ZM5.00001 754C2.79087 754 1 752.209 1 750H-1C-1 753.314 1.6863 756 5.00001 756V754ZM589 750C589 752.209 587.209 754 585 754V756C588.314 756 591 753.314 591 750H589ZM585 1C587.209 1 589 2.79086 589 5H591C591 1.68629 588.314 -1 585 -1V1ZM5 -1C1.6863 -1 -1 1.68627 -1 4.99998H1C1 2.79085 2.79086 1 5 1V-1Z" fill="black" fill-opacity="0.2" mask="url(#path-1-inside-1_108_505)"/>
<path d="M575 0H585C587.761 0 590 2.23858 590 5V750C590 752.761 587.761 755 585 755H575V0Z" fill="white"/>
<path d="M575.5 0.5H585C587.485 0.5 589.5 2.51472 589.5 5V750C589.5 752.485 587.485 754.5 585 754.5H575.5V0.5Z" stroke="black" stroke-opacity="0.2"/>
<mask id="path-5-inside-2_108_505" fill="white">
<path d="M575 39H590V109H575V39Z"/>
</mask>
<path d="M575 39H590V109H575V39Z" fill="#B6B6B6"/>
<path d="M589 39V109H591V39H589ZM576 109V39H574V109H576Z" fill="black" fill-opacity="0.2" mask="url(#path-5-inside-2_108_505)"/>
</svg>
